<svg xmlns="http://www.w3.org/2000/svg" viewBox="0 0 24 24">
  <path fill="#000" fill-rule="evenodd" d="M11.078 2.25c-.917 0-1.699.663-1.85 1.567L9.05 5.389c-.42.18-.812.41-1.17.684l-1.408-.513a1.875 1.875 0 0 0-2.334.817l-.75 1.299a1.875 1.875 0 0 0 .432 2.385l1.096.822a7.46 7.46 0 0 0 0 1.234l-1.096.822a1.875 1.875 0 0 0-.432 2.385l.75 1.3a1.875 1.875 0 0 0 2.334.816l1.408-.512c.358.273.75.503 1.17.684l.178 1.572c.151.904.933 1.567 1.85 1.567h1.5c.917 0 1.699-.663 1.85-1.567l.178-1.572c.42-.18.812-.41 1.17-.684l1.408.513a1.875 1.875 0 0 0 2.334-.817l.75-1.299a1.875 1.875 0 0 0-.432-2.385l-1.096-.822a7.46 7.46 0 0 0 0-1.234l1.096-.822a1.875 1.875 0 0 0 .432-2.385l-.75-1.3a1.875 1.875 0 0 0-2.334-.816l-1.408.512a7.49 7.49 0 0 0-1.17-.684l-.178-1.572a1.875 1.875 0 0 0-1.85-1.567h-1.5ZM12 15.75a3.75 3.75 0 1 0 0-7.5 3.75 3.75 0 0 0 0 7.5Z"/>
</svg>
